<svg width="112" height="112" viewBox="0 0 112 112" fill="none" xmlns="http://www.w3.org/2000/svg">
<path d="M104.868 11.7921C105.05 11.1473 105.056 10.4657 104.887 9.81746C104.718 9.16924 104.379 8.57783 103.905 8.1041C103.432 7.63038 102.84 7.29146 102.192 7.12224C101.544 6.95302 100.862 6.9596 100.217 7.14132L9.74576 34.5749C9.00714 34.7834 8.34974 35.2123 7.86143 35.8044C7.37313 36.3965 7.07718 37.1236 7.01315 37.8884C6.94911 38.6532 7.12005 39.4193 7.5031 40.0843C7.88616 40.7494 8.46308 41.2817 9.15676 41.61L49.5014 60.7127C50.2869 61.0853 50.9195 61.7178 51.292 62.5033L70.3994 102.843C70.7278 103.537 71.2601 104.114 71.9251 104.497C72.5901 104.88 73.3563 105.051 74.1211 104.987C74.8859 104.923 75.6129 104.627 76.205 104.139C76.7971 103.65 77.226 102.993 77.4345 102.254L104.868 11.7921Z" stroke="#C5C6C6" stroke-width="14" stroke-linecap="round" stroke-linejoin="round"/>
<path d="M50.5522 61.4571L74.857 37.1523" stroke="#C5C6C6" stroke-width="14" stroke-linecap="round" stroke-linejoin="round"/>
</svg>
