<svg width="722" height="161" viewBox="0 0 722 161" fill="none" xmlns="http://www.w3.org/2000/svg">
<path d="M104.868 39.7921C105.05 39.1473 105.056 38.4657 104.887 37.8175C104.718 37.1692 104.379 36.5778 103.905 36.1041C103.432 35.6304 102.84 35.2915 102.192 35.1222C101.544 34.953 100.862 34.9596 100.217 35.1413L9.74576 62.5749C9.00714 62.7834 8.34974 63.2123 7.86143 63.8044C7.37313 64.3965 7.07718 65.1236 7.01315 65.8884C6.94911 66.6532 7.12005 67.4193 7.5031 68.0843C7.88616 68.7494 8.46308 69.2817 9.15676 69.61L49.5014 88.7127C50.2869 89.0853 50.9195 89.7178 51.292 90.5033L70.3994 130.843C70.7278 131.537 71.2601 132.114 71.9251 132.497C72.5901 132.88 73.3563 133.051 74.1211 132.987C74.8859 132.923 75.6129 132.627 76.205 132.139C76.7971 131.65 77.226 130.993 77.4345 130.254L104.868 39.7921Z" stroke="#7C3AED" stroke-width="13" stroke-linecap="round" stroke-linejoin="round"/>
<path d="M50.5522 89.4571L74.857 65.1523" stroke="#7C3AED" stroke-width="13" stroke-linecap="round" stroke-linejoin="round"/>
<path d="M165.264 134.536C159.205 134.536 153.573 133.427 148.368 131.208C143.248 128.989 138.811 125.917 135.056 121.992C131.387 117.981 128.699 113.331 126.992 108.04L141.456 101.768C143.76 107.229 147.088 111.539 151.44 114.696C155.792 117.768 160.699 119.304 166.16 119.304C169.232 119.304 171.877 118.835 174.096 117.896C176.4 116.872 178.149 115.507 179.344 113.8C180.624 112.093 181.264 110.045 181.264 107.656C181.264 104.84 180.411 102.536 178.704 100.744C177.083 98.8667 174.608 97.416 171.28 96.392L152.976 90.504C145.552 88.2 139.963 84.744 136.208 80.136C132.453 75.528 130.576 70.1093 130.576 63.88C130.576 58.4187 131.899 53.5973 134.544 49.416C137.275 45.2347 141.029 41.992 145.808 39.688C150.672 37.2987 156.219 36.104 162.448 36.104C168.165 36.104 173.413 37.128 178.192 39.176C182.971 41.1387 187.067 43.912 190.48 47.496C193.979 50.9947 196.581 55.1333 198.288 59.912L183.952 66.312C182.075 61.5333 179.259 57.864 175.504 55.304C171.749 52.6587 167.397 51.336 162.448 51.336C159.547 51.336 156.987 51.848 154.768 52.872C152.549 53.8107 150.8 55.176 149.52 56.968C148.325 58.6747 147.728 60.7227 147.728 63.112C147.728 65.7573 148.581 68.104 150.288 70.152C151.995 72.1147 154.597 73.6507 158.096 74.76L175.632 80.264C183.227 82.7387 188.901 86.152 192.656 90.504C196.496 94.856 198.416 100.232 198.416 106.632C198.416 112.093 197.008 116.915 194.192 121.096C191.376 125.277 187.493 128.563 182.544 130.952C177.595 133.341 171.835 134.536 165.264 134.536ZM237.515 134.536C232.139 134.536 227.446 133.341 223.435 130.952C219.51 128.563 216.48 125.235 214.347 120.968C212.299 116.701 211.275 111.709 211.275 105.992V63.368H228.043V104.584C228.043 107.485 228.598 110.045 229.707 112.264C230.902 114.397 232.566 116.104 234.699 117.384C236.918 118.579 239.392 119.176 242.123 119.176C244.854 119.176 247.286 118.579 249.419 117.384C251.552 116.104 253.216 114.355 254.411 112.136C255.606 109.917 256.203 107.272 256.203 104.2V63.368H272.971V133H257.099V119.304L258.507 121.736C256.886 126.003 254.198 129.203 250.443 131.336C246.774 133.469 242.464 134.536 237.515 134.536ZM288.558 133V63.368H304.302V78.856L303.022 76.552C304.643 71.3467 307.161 67.72 310.574 65.672C314.073 63.624 318.254 62.6 323.118 62.6H327.214V77.448H321.198C316.419 77.448 312.579 78.9413 309.678 81.928C306.777 84.8293 305.326 88.9253 305.326 94.216V133H288.558ZM357.553 134.536C352.689 134.536 348.465 133.725 344.881 132.104C341.297 130.483 338.524 128.179 336.561 125.192C334.598 122.12 333.617 118.579 333.617 114.568C333.617 110.728 334.47 107.315 336.177 104.328C337.884 101.256 340.529 98.696 344.113 96.648C347.697 94.6 352.22 93.1493 357.681 92.296L380.465 88.584V101.384L360.881 104.712C357.553 105.309 355.078 106.376 353.457 107.912C351.836 109.448 351.025 111.453 351.025 113.928C351.025 116.317 351.921 118.237 353.713 119.688C355.59 121.053 357.894 121.736 360.625 121.736C364.124 121.736 367.196 121.011 369.841 119.56C372.572 118.024 374.662 115.933 376.113 113.288C377.649 110.643 378.417 107.741 378.417 104.584V86.664C378.417 83.6773 377.222 81.2027 374.833 79.24C372.529 77.192 369.457 76.168 365.617 76.168C362.033 76.168 358.833 77.1493 356.017 79.112C353.286 80.9893 351.281 83.5067 350.001 86.664L336.305 80.008C337.67 76.3387 339.804 73.1813 342.705 70.536C345.692 67.8053 349.19 65.672 353.201 64.136C357.212 62.6 361.564 61.832 366.257 61.832C371.974 61.832 377.009 62.8987 381.361 65.032C385.713 67.08 389.084 69.9813 391.473 73.736C393.948 77.4053 395.185 81.7147 395.185 86.664V133H379.313V121.096L382.897 120.84C381.105 123.827 378.972 126.344 376.497 128.392C374.022 130.355 371.206 131.891 368.049 133C364.892 134.024 361.393 134.536 357.553 134.536ZM441.177 133.768C433.326 133.768 427.225 131.635 422.873 127.368C418.606 123.016 416.473 116.915 416.473 109.064V78.344H404.441V63.368H405.721C409.134 63.368 411.78 62.472 413.657 60.68C415.534 58.888 416.473 56.2853 416.473 52.872V47.496H433.241V63.368H449.241V78.344H433.241V108.168C433.241 110.472 433.625 112.435 434.393 114.056C435.246 115.677 436.526 116.915 438.233 117.768C440.025 118.621 442.286 119.048 445.017 119.048C445.614 119.048 446.297 119.005 447.065 118.92C447.918 118.835 448.729 118.749 449.497 118.664V133C448.302 133.171 446.937 133.341 445.401 133.512C443.865 133.683 442.457 133.768 441.177 133.768Z" fill="#7C3AED"/>
<path d="M510.692 134.536C503.695 134.536 497.167 133.299 491.108 130.824C485.049 128.349 479.759 124.893 475.236 120.456C470.713 116.019 467.172 110.813 464.612 104.84C462.137 98.7813 460.9 92.2533 460.9 85.256C460.9 78.1733 462.137 71.6453 464.612 65.672C467.087 59.6987 470.585 54.4933 475.108 50.056C479.631 45.6187 484.921 42.2053 490.98 39.816C497.039 37.3413 503.609 36.104 510.692 36.104C517.775 36.104 524.345 37.3413 530.404 39.816C536.463 42.2907 541.753 45.7467 546.276 50.184C550.799 54.536 554.297 59.6987 556.772 65.672C559.332 71.6453 560.612 78.1733 560.612 85.256C560.612 92.2533 559.332 98.7813 556.772 104.84C554.212 110.813 550.671 116.019 546.148 120.456C541.625 124.893 536.335 128.349 530.276 130.824C524.303 133.299 517.775 134.536 510.692 134.536ZM510.692 118.664C515.385 118.664 519.695 117.853 523.62 116.232C527.545 114.525 530.959 112.179 533.86 109.192C536.847 106.205 539.108 102.664 540.644 98.568C542.265 94.472 543.076 90.0347 543.076 85.256C543.076 80.4773 542.265 76.0827 540.644 72.072C539.108 67.976 536.847 64.4347 533.86 61.448C530.959 58.376 527.545 56.0293 523.62 54.408C519.695 52.7867 515.385 51.976 510.692 51.976C506.084 51.976 501.817 52.7867 497.892 54.408C493.967 56.0293 490.511 58.376 487.524 61.448C484.623 64.4347 482.361 67.976 480.74 72.072C479.119 76.0827 478.308 80.4773 478.308 85.256C478.308 90.0347 479.119 94.472 480.74 98.568C482.361 102.664 484.623 106.205 487.524 109.192C490.511 112.179 493.967 114.525 497.892 116.232C501.817 117.853 506.084 118.664 510.692 118.664ZM532.708 144.52L503.012 94.856H521.188L551.268 144.52H532.708ZM599.515 134.536C594.139 134.536 589.446 133.341 585.435 130.952C581.51 128.563 578.48 125.235 576.347 120.968C574.299 116.701 573.275 111.709 573.275 105.992V63.368H590.043V104.584C590.043 107.485 590.598 110.045 591.707 112.264C592.902 114.397 594.566 116.104 596.699 117.384C598.918 118.579 601.392 119.176 604.123 119.176C606.854 119.176 609.286 118.579 611.419 117.384C613.552 116.104 615.216 114.355 616.411 112.136C617.606 109.917 618.203 107.272 618.203 104.2V63.368H634.971V133H619.099V119.304L620.507 121.736C618.886 126.003 616.198 129.203 612.443 131.336C608.774 133.469 604.464 134.536 599.515 134.536ZM683.582 134.536C676.414 134.536 670.142 132.915 664.766 129.672C659.39 126.429 655.209 122.035 652.222 116.488C649.235 110.941 647.742 104.797 647.742 98.056C647.742 91.0587 649.235 84.872 652.222 79.496C655.294 74.0347 659.433 69.7253 664.638 66.568C669.929 63.4107 675.817 61.832 682.302 61.832C687.763 61.832 692.542 62.728 696.638 64.52C700.819 66.312 704.361 68.7867 707.262 71.944C710.163 75.1013 712.382 78.728 713.918 82.824C715.454 86.8347 716.222 91.1867 716.222 95.88C716.222 97.0747 716.137 98.312 715.966 99.592C715.881 100.872 715.667 101.981 715.326 102.92H661.566V90.12H705.854L697.918 96.136C698.686 92.2107 698.473 88.712 697.278 85.64C696.169 82.568 694.291 80.136 691.646 78.344C689.086 76.552 685.971 75.656 682.302 75.656C678.803 75.656 675.689 76.552 672.958 78.344C670.227 80.0507 668.137 82.6107 666.686 86.024C665.321 89.352 664.809 93.4053 665.15 98.184C664.809 102.451 665.363 106.248 666.814 109.576C668.35 112.819 670.569 115.336 673.47 117.128C676.457 118.92 679.87 119.816 683.71 119.816C687.55 119.816 690.793 119.005 693.438 117.384C696.169 115.763 698.302 113.587 699.838 110.856L713.406 117.512C712.041 120.84 709.907 123.784 707.006 126.344C704.105 128.904 700.649 130.909 696.638 132.36C692.713 133.811 688.361 134.536 683.582 134.536Z" fill="black"/>
</svg>
